<svg xmlns="http://www.w3.org/2000/svg" viewBox="0 0 272 80"><defs/><g fill="none" fill-rule="evenodd"><path fill="#3EB6FF" d="M187.221807.8875675c-.441787.470745-.429907-.446985-.395752 29.6606475l.031185 27.934335.325957.21384c.32076.2101275 2.302493.25839 7.309913.1789425 1.472377-.02376 1.323877 1.3431825 1.40481-12.9484575.085387-15.2502075.084645-15.2398125 2.011432-18.5008725 1.500593-2.5400925 4.266405-4.4037675 7.17849-4.83813 5.39055-.8041275 9.73269.84942 12.02553 4.5804825 1.758983 2.86308 1.776803 3.04128 1.80279 18.4488975.02376 13.72734-.021532 13.0241925.839025 13.20759.554648.117315 7.251998.1121175 7.717545-.0066825.618503-.15741.613305-.037125.559103-14.19066-.045293-11.56815-.076478-13.330845-.257648-14.4171225-.113602-.68013-.260617-1.64241-.3267-2.1376575-.283635-2.13246-1.352092-4.8670875-2.51559-6.443415-2.004007-2.71458-3.236557-3.79863-6.046177-5.3185275-3.061328-1.6565175-9.27234-2.01663-13.095473-.76032-3.551377 1.16721-5.452177 2.4717825-7.655917 5.255415-.484853.6125625-.928125 1.1709225-.985298 1.2407175-.05643.069795-.202702.2784375-.324472.4640625-.232403.354915-.603653.44253-.7722.1819125-.055688-.084645-.128453-4.9457925-.162608-10.8026325-.057172-9.924255-.076477-10.6704675-.281407-10.9823175l-.219038-.3348675H187.518065l-.296258.31482m-163.653682 14.11641c-.2041875.0297-.7610625.1314225-1.2377475.2264625-.4759425.0957825-1.0773675.2086425-1.3357575.2517075-3.223935.5323725-7.3648575 3.4325775-9.597555 6.719625-.28215.4158-.5130675.81081-.5130675.877635 0 .066825-.16335.2027025-.3630825.3021975-.5145525.256905-.5130675.265815-.6422625-3.627855-.13068-3.957525-.12177-3.89664-.61182-4.1498325-.628155-.3244725-7.984845-.21681-8.231355.1210275-.2784375.38016-.331155 63.0300825-.0542025 63.5483475.23463.4373325 7.5920625.6199875 8.2269.20493.651915-.42768.6229575.21681.6318675-14.307975.007425-12.0515175.0452925-14.14314.262845-14.5121625.1017225-.173745.70686.41283.978615.9481725 1.10484 2.1792375 4.0295475 4.97475 6.237 5.96079.2383425.10692.67122.3021975.960795.435105 3.856545 1.76121 10.3883175 1.9579725 14.260455.4284225.44253-.17523 1.11078-.43659 1.485-.5813775 2.3217975-.898425 5.22423-3.1920075 6.77457-5.3526825.4432725-.6185025.9036225-1.2362625 1.0224225-1.37214.2175525-.24948.6600825-1.011285 1.1872575-2.041875.3690225-.7209675 1.1634975-2.787345 1.1634975-3.024945 0-.10098.117315-.47817.2606175-.83754.253935-.63855.63558-2.4435675.8575875-4.0577625.1485-1.0773675.1485-7.1866575 0-8.0435025-.491535-2.8296675-.6303825-3.506085-.7967025-3.8632275-.10395-.2234925-.2442825-.6571125-.3111075-.963765-.1596375-.7328475-.3705075-1.22958-1.329075-3.1355775-2.2148775-4.403025-5.1017175-7.0277625-10.004445-9.0963675-2.0054925-.8457075-6.87258-1.3996125-9.28125-1.055835m44.17875.179685c-2.3975325.512325-4.1928975 1.20582-6.2496225 2.4153525-.98307.5784075-1.103355.66825-2.665575 1.9921275-1.272645 1.07811-3.68577 4.12236-3.954555 4.9888575-.0527175.1700325-.3942675.93852-.758835 1.70775-2.175525 4.5864225-2.8549125 13.604085-1.349865 17.9068725.09504.271755.256905.8316.3586275 1.2436875.31482 1.27116 1.608255 4.2359625 2.3871375 5.46777 1.52658 2.41758 3.4860375 4.33917 5.94594 5.83308 3.6909675 2.2401225 9.3963375 3.3561 13.1548725 2.57202.51084-.1061775 1.3461525-.280665 1.85625-.3883275 3.431835-.7209675 7.536375-3.4771275 9.40302-6.3134775.268785-.408375.5754375-.853875.681615-.9897525.105435-.13662.2947725-.3838725.420255-.54945l.227205-.3021975.155925.2903175c.218295.4091175.3615975 2.392335.3675375 5.10543l.00594 2.3173425.4016925.21978c.645975.3526875 7.800705.3259575 8.2900125-.031185l.334125-.2442825.0037125-21.1233825.0037125-21.1233825-.298485-.3467475-.298485-.34749-3.5974125-.0363825c-5.35491-.0542025-4.96287-.3809025-4.9636125 4.1394375-.0007425 3.755565-.2175525 4.9175775-.714285 3.82833-.381645-.839025-2.724975-3.72735-3.672405-4.5270225-1.596375-1.34838-3.084345-2.2015125-5.389065-3.0895425-2.21265-.8531325-7.471035-1.1738925-10.0853775-.6155325m86.13-.179685c-1.623105.21681-5.903618 1.47906-6.433763 1.8970875-.069052.0542025-.7425.4120875-1.49688.7937325-2.715322 1.3758525-6.232545 4.910895-7.403467 7.4420775-.126225.2724975-.44253.92664-.70389 1.453815-.470745.951885-1.225125 3.0345975-1.225125 3.3820875 0 .099495-.109148.583605-.242055 1.0758825-.548708 2.03148-.912533 6.7886775-.636323 8.3197125.073508.408375.192308 1.2436875.26433 1.85625.205673 1.7649225.817493 4.459455 1.09296 4.8151125.057173.07425.16335.301455.235373.5056425.738045 2.083455 1.505047 3.39471 3.431092 5.867235.527918.67716 2.301008 2.3648625 3.171218 3.0182625 1.129342.847935 2.226015 1.4649525 4.253782 2.392335 1.866645.8531325 4.936883 1.498365 7.788825 1.63647 2.396048.11583 3.839468.0155925 6.93792-.479655.992723-.158895 2.649983-.7580925 4.492868-1.6253325.701662-.32967 1.295662-.59994 1.320165-.59994.091327 0 2.125778-1.40481 2.72052-1.8777825 2.496285-1.9876725 4.902727-5.5353375 5.860552-8.6404725 1.150133-3.7266075 1.44342-3.48975-4.271602-3.43926-2.75913.02376-4.152803.08019-4.24413.170775-.120285.1210275-.725423 1.59786-.98307 2.4019875-.547223 1.7070075-2.924708 4.1661675-4.901985 5.071275-5.48262 2.5103925-11.873318 1.06029-15.21531-3.4533675-.37422-.5056425-.68013-.9852975-.68013-1.06623 0-.0809325-.113603-.29106-.251708-.4670325-.523462-.66528-1.41075-3.7548225-1.60083-5.5739475-.696465-6.6639375 1.153103-12.4108875 4.76091-14.7883725.271755-.179685.569498-.3972375.660825-.48411.438818-.4158 1.993613-1.0788525 3.422925-1.4590125 2.02554-.5397975 7.46361-.250965 8.14671.4328775.072765.0720225.219038.1314225.325215.1314225 1.25037 0 5.167058 3.9746025 5.516033 5.5977075.048262.22275.224235.7491825.39204 1.17018l.304425.7655175.701662.096525c1.629045.2220075 7.722743.1165725 8.157105-.14256 1.251113-.7447275-1.518412-7.14879-4.388175-10.14849-2.409412-2.5178175-6.505785-4.9101525-9.31689-5.4417825-.57915-.10989-1.441935-.2903175-1.91862-.4016925-.827145-.19305-6.96168-.348975-8.043502-.20493m95.41125.04752c-3.00564.5049-5.193045 1.3283325-7.298775 2.74725-1.381793.9303525-3.500145 3.42441-3.722895 4.3829775-.046035.19602-.155183.4714875-.242055.6125625-1.074398 1.72854-1.14642 6.6268125-.129938 8.884755.095783.2130975.28215.63855.413573.94446.615532 1.4278275 3.013065 3.639735 5.092065 4.697055 1.31571.6689925 7.797735 2.4851475 9.939105 2.784375.322987.0452925 1.071427.2457675 1.6632.4462425.591772.1997325 1.19394.363825 1.337985.363825.144045 0 .314078.0497475.378675.10989.064597.060885.452182.20493.860557.3200175 3.379118.9541125 5.062366 2.86605 5.069048 5.757345.011137 4.4349525-3.742943 6.734475-9.3852 5.7476925-3.803085-.66528-6.375848-2.87199-7.566075-6.4901925-.455153-1.382535-.404663-1.3684275-4.644338-1.3491225-1.953517.00891-3.606322.0512325-3.672405.09504-.66528.43362-.452182 2.2772475.5049 4.3710975.103208.22572.276953.6051375.385358.84348.86724 1.8985725 2.335162 3.7132425 4.210717 5.2056675.88506.70389 3.241013 2.095335 3.54915 2.095335.093555 0 .279923.0749925.414315.16632.134393.0913275.355658.197505.491535.2353725.13662.03861.637808.21087 1.11375.3823875 5.083155 1.836945 12.647745 1.403325 17.015873-.9749025.170033-.0928125.559845-.3051675.866498-.47223.946687-.5160375 2.538607-2.0025225 3.169732-2.9603475.657855-.99792 1.53252-2.68785 1.53252-2.959605 0-.09801.10989-.5917725.244282-1.0981575.324473-1.2199275.331898-3.6241425.016335-5.445495-.628897-3.62934-3.505342-6.70626-7.685617-8.2202175-1.690672-.6125625-4.573057-1.4515875-5.878373-1.712205-8.694675-1.732995-11.81466-3.6686925-11.839905-7.346295-.027472-3.86694 3.367238-6.2466525 8.189775-5.7417525 4.191413.438075 6.651315 2.246805 7.969253 5.85981.752152 2.0619225.588802 2.00475 5.463315 1.92159 3.607808-.060885 3.775612-.1254825 3.387285-1.3016025-.078705-.24057-.213098-.749925-.298485-1.1323125-1.22067-5.50044-6.23403-10.1774475-12.246053-11.424105-1.974307-.40986-7.076767-.613305-8.668687-.346005m-223.1828775 8.094735c3.7919475.779625 6.000885 2.3440725 8.31303 5.8887675 2.3366475 3.58182 2.454705 11.4708825.2368575 15.8174775-1.4961375 2.932875-4.789125 5.65785-7.3529775 6.08553-.351945.0586575-.97416.19602-1.382535.30591-1.5792975.42471-4.1661675.3719925-5.94-.1210275-.3408075-.0942975-.88506-.2376-1.210275-.3185325-.3244725-.0809325-.62073-.1952775-.65637-.253935-.0363825-.0586575-.16038-.10692-.2754675-.10692-1.12563-.0037125-4.0844925-2.4302025-5.72616-4.6963125-1.8584775-2.5653375-3.0687525-9.956925-1.9668825-12.015135.0690525-.129195.179685-.51975.245025-.8664975.0660825-.34749.1997325-.80784.2977425-1.02465.0972675-.2160675.262845-.70092.36828-1.07811.304425-1.0907325.88506-2.080485 1.92753-3.2855625.24057-.277695.63261-.7402725.8709525-1.0268775.2376-.286605.850905-.794475 1.3610025-1.1286.51084-.334125 1.1738925-.7773975 1.474605-.9852975.29997-.2079.773685-.438075 1.05138-.5130675.2784375-.07425.70092-.2101275.9392625-.3021975.3838725-.1477575 1.73448-.4551525 2.59875-.59103 1.0669725-.1685475 3.4830675-.0601425 4.82625.2160675M77.461745 23.14549c2.7316575.6927525 3.8305575 1.2466575 5.58063 2.8133325 4.3621875 3.90555 5.7729375 10.8174825 3.58776 17.577945-.1833975.565785-1.9579725 3.1281525-2.7880875 4.02435-1.46124 1.578555-3.7176975 2.9648025-5.5145475 3.387285-.5100975.120285-1.17909.28809-1.485.37422-.8976825.2517075-4.63914.2130975-5.25096-.05346-.2673-.117315-.871695-.2932875-1.3431825-.3912975-6.2407125-1.3016025-10.2249675-9.1171575-8.70507-17.0782425.5100975-2.6737425 1.58004-5.2041825 2.713095-6.41817.149985-.1611225.5368275-.601425.8590725-.9793575 2.3990175-2.8118475 8.1340875-4.32432 12.34629-3.256605m34.824735 17.655165c-.704633.2041875-.78408 1.0164825-.557618 5.683095.144045 2.9781675 1.15236 6.291945 2.387138 7.845255.81675 1.0268775 1.138995 1.3773375 1.557765 1.6936425.25245.191565.60291.458865.778882.594.298485.230175.795218.4744575 2.253488 1.1085525 1.860705.809325 4.05108 1.1486475 7.900942 1.2243825 5.20344.102465 4.815855.40689 4.794323-3.76002-.022275-4.2938775.201217-4.01841-3.359813-4.14315-6.271897-.21978-7.198537-1.1397375-7.375995-7.3262475-.07128-2.481435-.097267-2.716065-.31779-2.8771875-.27918-.203445-7.376737-.2413125-8.061322-.0423225"/><path fill="#7E4C97" d="M111.98948 5.8519225l-.311107.2680425-.037125 4.310955c-.033413 3.9285675-.056431 4.3384275-.260618 4.6205775l-.224235.30888-4.468365.06237c-4.075582.05643-4.48767.0809325-4.688887.2828925-.230175.2294325-.355658 8.22393-.132908 8.44668.223492.2234925 1.450103.2932875 5.24502.298485 3.806798.0051975 4.109737.0215325 4.30056.23166.181912.2012175.204188.6882975.20493 4.3621875.000743 4.1513175.063855 4.8819375.449212 5.201955.154441.12771 1.081823.1700325 4.189186.1908225l3.990937.0259875.135135-.27027c.088358-.176715.147758-1.8391725.171518-4.8114.027472-3.5201925.07128-4.578255.19602-4.702995.123997-.1239975 1.242202-.1744875 4.887877-.22275 2.600235-.0334125 4.797292-.10692 4.88268-.161865.199733-.129195.224978-8.261055.025988-8.632305-.122513-.230175-.305168-.239085-4.634685-.239085-4.70745 0-4.999995-.0304425-5.228685-.5397975-.069795-.15741-.106178-2.012175-.088358-4.55895.024503-3.39174-.003712-4.3413975-.132165-4.51737-.276952-.378675-8.026425-.337095-8.471925.0452925"/></g></svg>